<?xml version="1.0" standalone="no"?>
<!DOCTYPE svg PUBLIC "-//W3C//DTD SVG 20010904//EN"
 "http://www.w3.org/TR/2001/REC-SVG-20010904/DTD/svg10.dtd">
<svg version="1.0" xmlns="http://www.w3.org/2000/svg"
 width="400.000000pt" height="400.000000pt" viewBox="0 0 400.000000 400.000000"
 preserveAspectRatio="xMidYMid meet">
<metadata>
Created by potrace 1.11, written by Peter Selinger 2001-2013
</metadata>
<g transform="translate(0.000000,400.000000) scale(0.100000,-0.100000)"
fill="#000000" stroke="none">
<path d="M1997 3744 c-1 -1 -67 -5 -147 -8 -80 -4 -156 -8 -170 -10 -14 -3
-50 -7 -80 -10 -53 -6 -86 -11 -140 -21 -14 -3 -41 -7 -60 -10 -134 -21 -389
-98 -523 -158 l-72 -32 1 -125 c14 -1114 20 -1375 34 -1446 13 -66 46 -188 60
-219 4 -11 16 -40 25 -65 42 -114 158 -302 267 -437 190 -234 482 -450 709
-526 108 -36 133 -33 284 38 477 224 848 656 949 1105 34 151 34 155 41 785 4
297 8 629 9 739 l2 198 -45 20 c-94 40 -385 116 -516 133 -22 3 -53 7 -70 10
-43 6 -113 15 -160 20 -63 6 -394 22 -398 19z"/>
<path d="M2609 393 c0 -32 -1 -73 -2 -91 -1 -23 4 -37 15 -43 15 -8 18 -5 19
13 1 13 1 31 0 41 -2 17 9 19 139 19 121 0 117 1 118 -38 2 -42 3 -45 19 -36
7 4 12 39 13 87 2 112 3 107 -18 96 -14 -7 -18 -18 -14 -40 5 -35 15 -33 -133
-32 -138 0 -128 -3 -123 32 4 22 0 33 -14 40 -16 9 -18 5 -19 -48z"/>
<path d="M672 350 c-1 -83 0 -90 18 -90 13 0 20 7 20 20 0 19 7 20 145 20 174
0 167 -5 156 128 -1 9 -42 12 -170 12 l-168 0 -1 -90z m304 47 c3 -3 4 -18 0
-32 l-6 -25 -130 0 -130 0 0 28 c0 16 2 31 5 33 7 7 254 4 261 -4z"/>
<path d="M1065 428 c-2 -7 -3 -47 -2 -88 l2 -75 168 -3 c154 -2 167 -1 168 15
1 25 1 92 0 131 l-1 32 -165 0 c-124 0 -167 -3 -170 -12z m291 -30 c5 -4 10
-28 9 -55 l-1 -48 -128 0 c-70 0 -130 3 -133 8 -4 6 -7 80 -4 97 1 8 244 6
257 -2z"/>
<path d="M1446 353 c2 -109 1 -104 19 -97 8 4 15 15 15 25 0 18 9 19 125 19
114 0 125 -2 135 -20 6 -11 18 -20 28 -20 15 0 17 11 17 88 l0 87 -170 3 -171
2 2 -87z m298 44 c9 -3 12 -15 9 -31 l-5 -26 -132 0 -132 0 2 33 c1 17 2 32 3
32 111 0 245 -4 255 -8z"/>
<path d="M1854 426 c-3 -8 -4 -31 -2 -52 l3 -39 137 -3 c109 -2 137 -6 142
-17 6 -17 12 -17 -161 -17 -115 0 -123 -1 -123 -19 0 -19 7 -19 158 -17 l157
3 0 50 0 50 -127 1 c-135 1 -169 7 -150 26 7 7 61 11 146 11 125 0 136 2 136
19 0 17 -11 18 -155 18 -124 0 -157 -3 -161 -14z"/>
<path d="M2234 426 c-3 -8 -4 -48 -2 -88 l3 -73 162 -3 c150 -2 161 -1 159 15
-3 16 -17 18 -127 20 -68 0 -132 2 -142 2 -15 1 -18 9 -15 54 l3 52 135 0
c126 -1 157 5 144 27 -3 4 -75 8 -160 8 -125 0 -156 -3 -160 -14z"/>
<path d="M2989 438 c-1 -2 -2 -42 -3 -90 l-2 -88 171 0 c159 0 171 1 172 19 1
17 -8 18 -130 19 -73 0 -142 1 -154 1 -14 1 -23 7 -23 16 0 12 17 15 93 16
195 1 211 3 215 22 3 16 -9 17 -151 17 -142 0 -155 1 -153 18 3 15 18 17 152
17 134 0 149 2 152 18 3 16 -10 17 -167 17 -94 0 -172 -1 -172 -2z"/>
</g>
</svg>
